<svg fill="none" xmlns="http://www.w3.org/2000/svg" viewBox="0 0 26 26"><path d="M23.714.5H2.28C1.297.5.5 1.31.5 2.302v21.396c0 .993.797 1.802 1.78 1.802h21.434c.982 0 1.785-.81 1.785-1.802V2.302C25.5 1.31 24.696.5 23.714.5ZM8.055 21.928H4.35V9.998h3.71v11.93h-.005ZM6.203 8.368a2.15 2.15 0 0 1 0-4.297c1.183 0 2.148.966 2.148 2.149 0 1.188-.96 2.148-2.148 2.148Zm15.742 13.56h-3.706v-5.803c0-1.384-.028-3.164-1.925-3.164-1.93 0-2.226 1.507-2.226 3.063v5.904h-3.706V9.998h3.555v1.63h.05c.497-.938 1.708-1.926 3.51-1.926 3.75 0 4.448 2.472 4.448 5.686v6.54Z"/></svg>